<svg width="1567" height="614" viewBox="0 0 1567 614" fill="none" xmlns="http://www.w3.org/2000/svg">
<path d="M1062.71 525.158L1467.6 520.807" stroke="#1D1D1B" stroke-width="0.25" stroke-miterlimit="10"/>
<path d="M1468.42 573.845L1063.33 578.197" stroke="#1D1D1B" stroke-width="0.25" stroke-miterlimit="10"/>
<path d="M19.4651 150.412L293.498 48.4143C293.398 57.5291 293.948 66.636 295.142 75.6137C297.196 85.4054 302.332 102.813 302.332 102.813L22.9572 155.308C22.9572 155.308 17 154.492 19.4651 150.412Z" fill="#6A6868"/>
<path d="M384.501 67.1819L309.521 101.181C306.439 83.232 304.108 65.0715 302.537 46.7824C328.404 41.5963 354.461 38.237 380.598 36.7186C380.598 36.7186 379.981 62.83 384.501 67.1819Z" fill="black"/>
<path d="M502.618 83.5015C502.618 83.5015 431.748 -29.9198 403.194 7.61529C374.64 45.1504 389.636 72.3497 408.946 84.0455C428.255 95.7412 444.689 73.7097 451.879 70.4458C460.551 67.7178 469.563 67.4714 478.313 69.7228C487.063 71.9742 495.349 76.6717 502.618 83.5015V83.5015Z" fill="white"/>
<path d="M168.72 441.199C166.82 440.819 165.3 440.059 163.78 439.679C161.88 438.919 160.36 439.299 158.46 440.819C156.94 442.719 154.66 443.479 153.14 445.379C151.62 446.519 151.24 448.039 150.48 449.559C150.48 452.979 153.9 453.739 156.18 454.879C156.56 454.879 156.56 454.879 156.94 454.879C159.22 454.119 161.5 453.739 163.78 452.599C166.06 451.079 168.34 448.799 168.72 445.759C168.72 444.239 168.72 442.719 168.72 441.199ZM140.98 452.979C139.46 452.599 138.32 453.359 137.56 454.499C136.42 456.019 137.18 457.919 139.08 459.059C142.12 460.199 145.54 457.539 144.78 454.119C143.64 453.739 142.12 453.359 140.98 452.979ZM19 269.059C19 266.399 18.62 263.359 20.52 261.079C20.52 260.699 20.52 260.699 20.52 260.319C19.76 260.699 19.38 260.699 19 261.079C17.86 258.799 17.48 256.519 15.96 254.999C14.82 253.859 12.16 254.239 10.64 253.479C9.5 254.999 8.74 255.759 7.98 256.899C7.22 257.659 6.46 258.039 5.7 259.179C3.8 263.359 2.28 268.299 3.42 273.239C3.8 275.519 4.18 277.799 6.84 278.559C7.6 278.559 7.98 279.319 8.36 280.079C9.12 279.699 10.26 279.699 10.64 279.319C12.16 278.559 14.06 277.799 15.2 276.279C16.72 274.759 17.48 272.479 18.62 270.579C19 270.199 19 269.819 19 269.059ZM25.08 242.079C25.46 239.799 23.56 238.659 21.28 239.419C19.76 239.799 18.24 240.559 17.48 242.459C17.1 243.979 17.1 245.499 16.72 247.019C20.14 248.539 24.7 245.879 25.08 242.079ZM158.08 431.319C168.72 415.739 168.72 402.819 163.78 392.179C158.08 381.539 148.96 376.979 144.4 375.079C142.88 374.699 141.36 375.839 141.36 377.359C141.74 384.579 140.6 391.039 138.7 397.119C131.86 403.959 123.12 408.519 114.38 411.179C99.94 415.359 84.36 415.739 69.92 410.799C67.26 410.039 64.22 408.899 61.56 407.759C59.28 376.599 63.84 334.039 63.84 334.039C66.12 301.359 72.96 266.019 72.96 266.019C81.32 217.379 49.02 206.359 38.76 204.079C37.24 203.699 35.72 204.839 35.72 206.359C35.72 209.779 35.34 216.999 33.82 229.159C30.02 252.719 23.56 290.719 20.14 321.119C14.82 364.819 2.28 449.559 67.64 458.679C67.64 458.679 133.38 467.039 158.08 431.319ZM49.4 236.379C46.74 247.779 42.94 257.659 32.68 303.639C32.68 303.639 33.44 272.859 40.66 232.959C41.8 226.499 44.08 220.419 47.88 219.279C47.88 219.279 53.58 217.759 49.4 236.379ZM71.44 438.539C66.12 435.879 63.46 425.239 61.94 411.939C70.3 415.359 79.42 417.259 88.54 417.639C104.5 418.399 120.84 414.979 134.52 406.239C120.08 431.699 87.78 446.899 71.44 438.539ZM297.113 290.339C294.453 289.199 291.413 288.819 288.753 291.099C287.233 292.239 286.093 293.759 284.953 294.519C285.713 296.799 286.093 298.699 286.473 300.599C287.233 302.879 288.373 304.399 290.653 304.779C292.933 305.159 295.213 306.299 297.493 306.679C299.013 307.059 300.913 306.299 302.813 305.919C305.473 302.879 303.953 299.459 303.573 295.659V295.279C301.293 293.759 299.393 291.479 297.113 290.339ZM270.893 287.299C271.273 288.819 272.032 289.959 272.793 291.099C273.553 292.619 275.073 292.999 276.593 292.999C278.873 292.999 280.013 291.099 279.253 288.819C278.113 285.399 273.553 284.639 270.893 287.299ZM227.193 244.359C184.253 253.099 169.053 254.239 164.873 254.239C163.733 254.619 163.353 255.379 163.353 256.139C164.493 262.219 169.053 283.879 188.053 284.639C185.013 300.599 181.593 323.019 180.833 346.579C180.833 346.959 180.833 347.339 180.833 347.719C164.493 358.739 166.393 372.039 167.533 376.979C167.913 377.739 168.673 378.119 169.433 377.739C172.093 375.459 175.513 373.179 179.313 371.659C177.033 410.799 177.793 452.599 231.373 459.059C231.373 459.059 286.473 467.799 307.373 434.739C324.853 406.999 302.813 384.959 294.833 378.499C294.073 377.739 292.553 378.499 292.173 379.639C291.033 389.519 287.613 398.639 283.053 406.619C283.053 406.619 278.113 408.519 274.313 409.659C268.993 411.179 263.673 412.319 258.353 413.079C251.893 413.459 245.433 412.319 239.733 408.899C234.793 405.479 230.613 401.299 227.193 395.979C224.913 391.799 223.013 387.239 221.873 382.679C221.873 372.419 222.633 363.679 223.013 360.639C244.293 357.979 263.673 359.879 275.833 364.439C276.593 364.819 277.353 364.439 278.113 363.679C281.533 358.359 280.393 352.659 280.393 352.279C277.733 332.519 259.493 326.439 225.293 332.899C227.193 310.859 227.953 295.279 227.953 295.279C228.333 289.579 227.573 284.259 225.293 280.459C227.953 280.079 230.613 279.699 232.893 279.319C283.433 270.959 306.233 283.119 312.313 287.299C313.453 288.059 314.593 287.679 314.593 286.539C323.333 224.599 278.113 234.099 227.193 244.359ZM230.993 411.179C245.433 420.679 263.293 418.019 278.873 413.459C265.953 430.559 246.953 440.059 232.513 433.979C225.673 430.939 223.013 417.639 222.253 403.199C224.533 406.239 227.573 408.899 230.993 411.179ZM200.593 264.119C183.873 269.439 185.013 263.739 185.013 263.739C185.392 260.319 190.333 258.419 196.413 256.519C232.893 247.019 260.253 245.879 260.253 245.879C229.853 252.339 211.233 260.699 200.593 264.119ZM386.03 243.979C343.85 251.199 328.65 251.959 323.71 251.959C322.57 251.959 321.81 253.099 321.81 253.859C322.95 261.459 327.89 285.399 350.69 282.739C360.57 289.579 371.97 294.139 383.75 296.799C380.33 313.139 376.91 334.799 376.15 356.459C374.63 399.779 366.27 470.079 431.25 459.059C432.77 459.059 433.91 457.159 433.15 455.639C428.97 446.899 418.71 418.779 419.85 367.859C420.61 339.359 425.55 308.959 425.55 308.959C426.31 304.779 426.31 300.599 425.93 297.179C429.35 296.419 433.15 295.659 436.57 294.519C444.93 291.859 452.91 288.439 460.89 284.639C464.69 286.539 467.73 288.059 469.25 289.579C470.39 290.339 471.91 289.579 472.29 288.439C482.55 227.259 436.95 235.239 386.03 243.979ZM384.51 292.999C379.95 291.859 375.39 289.959 370.83 288.059C366.65 286.539 362.85 284.259 359.05 281.979C366.27 281.599 378.43 280.459 387.55 279.319C386.41 283.119 385.65 287.679 384.51 292.999ZM357.15 264.119C340.05 268.679 341.57 263.359 341.57 263.359C342.33 259.939 347.27 257.659 353.35 256.139C379.57 249.679 411.49 245.499 411.49 245.499C386.79 251.959 367.79 261.079 357.15 264.119ZM425.55 293.759C424.03 286.159 420.61 280.839 416.43 277.039C433.91 277.039 446.45 279.699 455.19 282.359C445.31 286.919 435.81 291.099 425.55 293.759ZM681.186 391.419C672.066 338.979 596.826 324.919 592.646 324.539V324.159C593.406 283.499 610.126 255.379 629.126 259.939C629.126 259.939 642.806 263.739 637.866 304.779C637.106 311.999 635.586 317.319 632.926 322.639C632.166 324.539 632.926 326.439 635.206 327.199C648.126 330.239 670.546 325.299 672.066 304.779C674.726 274.759 666.746 249.299 637.106 239.419C637.106 239.419 599.106 228.019 574.786 253.859C574.786 253.859 548.566 278.559 548.186 314.279C547.806 315.039 542.866 350.759 588.466 358.359C634.446 366.339 640.906 396.739 640.906 396.739C641.286 399.399 642.046 401.679 642.046 403.579C636.726 407.759 629.886 409.659 623.426 410.039C616.206 410.419 608.986 408.899 602.526 406.619C597.966 405.099 593.406 403.579 589.606 400.539C590.746 390.659 595.686 381.159 597.966 376.599C598.726 375.459 597.966 374.319 596.826 373.939C546.286 364.819 548.186 406.239 548.186 406.239C551.226 466.659 618.866 459.819 618.866 459.819C693.346 456.399 681.186 391.419 681.186 391.419ZM561.106 299.839C561.106 299.839 566.046 271.719 593.786 250.439C599.106 246.639 605.946 243.599 608.986 245.879C608.986 245.879 612.026 247.399 598.726 257.279C587.706 266.019 574.026 278.179 561.106 299.839ZM617.346 434.739C596.446 434.739 589.986 423.339 589.606 406.239C589.606 406.239 601.766 411.179 611.646 412.699C621.906 414.599 632.926 413.459 642.426 408.899C642.426 433.599 617.726 434.739 617.346 434.739ZM900.389 207.119C824.389 208.259 788.289 237.139 787.149 238.279C748.009 266.399 783.349 302.119 792.849 310.479C793.609 311.239 794.749 310.479 794.749 309.719C795.129 301.359 800.829 277.419 858.209 261.079C854.029 278.559 847.949 305.539 846.049 328.719C843.389 357.219 838.449 386.479 862.009 404.339C815.269 408.139 800.449 385.339 797.029 379.259C796.649 378.499 795.889 378.499 795.129 378.879C789.429 384.199 767.009 408.519 791.709 433.219C820.209 461.719 891.269 445.759 891.269 445.759C1000.33 424.859 1011.73 322.259 1011.73 322.259C1028.83 198.379 902.669 206.739 900.389 207.119ZM793.609 263.359C789.809 268.299 787.529 269.059 785.629 268.679C783.349 267.919 782.589 265.259 782.589 265.259C782.589 265.259 774.989 239.419 846.049 221.559C846.049 221.559 811.849 238.279 793.609 263.359ZM884.809 255.379C900.389 253.479 936.489 251.199 960.429 263.739C940.289 261.079 919.769 261.459 900.009 265.259C898.109 265.259 896.209 265.639 894.309 266.399C891.649 261.839 888.609 258.419 884.809 255.379ZM981.329 323.779C978.289 334.799 959.669 382.679 889.369 400.159C888.229 386.479 887.089 365.199 888.989 339.739C890.509 315.799 897.349 289.579 897.349 289.579C898.869 282.359 898.109 275.899 896.209 270.579C903.809 268.299 912.549 267.539 920.529 267.159C933.449 266.399 946.749 266.779 959.669 268.299C963.089 268.679 966.509 269.439 969.929 269.819C982.469 280.459 988.549 297.179 981.329 323.779ZM780.309 322.639C780.689 320.739 778.789 318.839 778.029 317.319C776.509 317.319 775.369 317.319 774.229 317.319C773.089 317.319 771.949 316.939 771.189 316.939C766.249 318.079 761.689 319.979 758.269 323.779C756.749 325.679 755.229 327.199 756.369 329.479C756.749 330.239 756.369 331.379 756.369 332.139C756.749 332.519 757.129 333.279 757.889 333.279C759.789 334.039 761.309 334.799 763.209 335.179C765.109 335.179 767.389 334.419 769.669 334.419C770.429 334.039 770.809 333.659 771.189 333.659C773.469 331.759 775.369 329.859 778.789 329.859C778.789 329.859 778.789 329.479 779.169 329.479C778.409 329.099 778.029 328.719 777.649 328.339C778.789 326.439 780.309 324.539 780.309 322.639ZM939.529 443.859C937.249 441.579 934.209 441.579 931.549 441.959C928.889 442.339 926.989 443.859 924.709 444.999C924.329 444.999 924.329 444.999 924.329 445.379C923.189 448.039 921.289 450.319 923.569 452.979C925.089 453.739 926.609 454.499 928.509 454.499C930.789 454.499 933.069 453.739 935.349 454.119C937.629 454.119 939.149 452.979 940.289 451.459C941.049 449.939 941.429 448.799 942.569 446.899C941.809 445.759 940.669 444.619 939.529 443.859ZM952.449 435.119C951.309 434.359 949.789 434.359 948.649 435.499C947.889 436.639 947.129 437.779 946.369 438.919C947.889 442.339 952.069 442.339 953.589 439.299C954.729 437.399 954.349 435.499 952.449 435.119ZM796.649 324.539C797.789 322.259 796.649 320.739 794.369 320.359C792.469 320.359 790.949 320.359 789.809 321.879C788.669 323.019 787.909 324.539 786.769 325.679C789.429 328.339 794.749 327.959 796.649 324.539ZM1193.51 443.859C1185.53 439.679 1165.77 427.139 1153.61 400.539C1144.49 380.779 1140.69 372.039 1140.69 372.039C1139.17 368.619 1136.89 365.579 1134.61 363.299C1183.25 344.299 1182.11 297.559 1182.11 297.559C1182.49 276.279 1165.39 239.039 1108.01 238.279C1049.87 237.139 1027.83 261.839 1027.83 261.839C1006.55 283.119 1031.63 308.199 1040.75 316.179C1041.89 317.319 1044.17 316.559 1044.17 315.039C1045.69 307.439 1050.63 291.479 1072.67 282.359C1068.87 297.939 1062.41 327.959 1061.27 357.979C1059.75 400.919 1051.39 470.459 1117.51 459.059C1118.65 458.679 1119.41 457.539 1118.65 456.399C1115.23 449.179 1104.59 422.959 1104.97 373.939C1109.15 381.159 1113.33 391.419 1117.89 406.239C1129.29 442.339 1155.51 478.819 1193.89 447.659C1195.03 446.519 1194.65 444.619 1193.51 443.859ZM1045.31 275.519C1041.51 279.319 1038.85 279.699 1037.33 279.319C1035.05 278.939 1034.29 276.659 1034.29 276.659C1034.29 276.659 1027.83 255.379 1099.65 244.359C1099.65 244.359 1064.69 256.139 1045.31 275.519ZM1096.99 276.659C1100.79 276.279 1104.59 275.899 1108.77 275.899C1108.77 275.899 1158.55 274.379 1158.55 299.459C1158.55 299.459 1157.79 307.059 1150.19 315.799C1142.21 318.459 1133.09 318.839 1124.73 316.179C1119.79 314.659 1115.23 312.379 1111.05 309.339C1112.95 291.099 1105.35 281.599 1096.99 276.659ZM1107.63 336.319C1108.39 326.819 1109.53 319.219 1110.29 315.039C1120.55 320.739 1132.71 322.639 1144.49 320.739C1137.27 326.819 1125.49 332.899 1107.63 336.319ZM1263.62 401.679C1261.34 401.299 1259.06 402.059 1256.4 401.299C1254.5 400.919 1252.98 402.059 1251.46 403.959C1250.32 405.479 1249.56 406.999 1248.42 408.899C1248.8 410.039 1249.56 411.559 1250.7 413.079C1252.6 416.119 1255.64 416.499 1258.3 416.499C1260.96 416.119 1263.24 414.979 1265.52 413.839C1265.9 413.839 1265.9 413.839 1265.9 413.459C1267.42 410.419 1270.08 407.759 1268.18 404.339C1266.66 403.579 1265.14 402.059 1263.62 401.679ZM1275.02 395.219C1272.74 395.979 1271.6 397.499 1272.36 399.399C1273.12 400.539 1273.88 401.679 1275.4 401.679C1276.92 401.679 1278.44 401.299 1279.58 401.299C1280.72 397.879 1278.44 394.459 1275.02 395.219ZM1327.46 381.159C1340 376.219 1341.14 363.679 1341.52 359.879C1341.52 359.499 1341.14 358.739 1340.38 358.739C1338.1 357.979 1332.4 356.839 1324.42 354.939C1320.62 324.539 1317.96 296.799 1316.44 286.159C1313.4 259.179 1291.36 241.319 1265.9 239.419C1246.52 237.899 1222.2 303.259 1208.52 350.379C1194.84 355.319 1185.34 365.199 1185.34 384.199C1185.34 385.339 1186.1 385.719 1187.24 385.719C1189.52 384.579 1193.7 383.439 1200.54 381.919C1198.64 388.379 1197.5 394.459 1196.74 400.539C1192.56 425.619 1194.08 431.319 1194.08 431.319C1196.36 455.639 1229.04 459.439 1237.02 459.819C1237.78 459.819 1238.92 459.059 1238.54 458.299C1238.16 440.819 1240.06 418.779 1243.48 396.359C1257.54 391.419 1271.98 386.479 1287.18 385.339C1288.32 410.419 1290.22 431.319 1292.12 440.059C1297.44 462.099 1329.74 460.959 1338.48 460.199C1339.62 460.199 1340.38 459.059 1340 457.919C1336.2 446.899 1331.64 414.979 1327.46 381.159ZM1278.44 263.739C1280.72 266.399 1283 307.059 1284.9 348.859C1279.96 348.479 1275.02 347.719 1270.08 347.719C1264.38 347.339 1258.68 346.959 1252.6 346.579C1262.86 299.839 1275.4 260.699 1278.44 263.739ZM1233.98 301.359C1233.98 301.359 1243.1 268.299 1259.44 253.099C1264 249.299 1269.32 246.259 1273.5 247.399C1273.5 247.399 1278.06 248.539 1264 258.799C1256.02 265.259 1240.82 285.019 1233.98 301.359ZM1244.24 390.659C1245 386.479 1245.76 381.919 1246.52 377.359C1251.08 377.359 1255.26 377.359 1260.2 377.739C1269.32 378.119 1278.82 378.879 1286.8 380.019C1286.8 380.019 1286.8 380.399 1286.8 380.779C1272.36 381.919 1258.3 386.099 1244.24 390.659ZM1540.18 282.359C1536 248.159 1497.62 247.779 1483.94 248.919C1481.66 249.299 1480.52 251.579 1481.66 253.479C1499.9 285.019 1501.04 339.739 1501.04 339.739C1501.04 346.199 1501.04 352.279 1501.42 357.979C1495.34 361.019 1489.26 363.679 1483.18 365.199C1483.18 365.199 1475.2 367.479 1467.22 368.239C1468.36 345.439 1471.78 321.499 1473.68 305.919C1474.82 296.039 1469.5 286.539 1460.76 281.979C1451.64 277.039 1443.66 275.899 1439.48 275.519C1437.96 275.139 1436.44 276.279 1436.44 277.799C1434.16 288.059 1426.18 328.719 1417.06 364.819C1415.16 364.439 1413.26 364.059 1411.36 363.299C1404.52 361.019 1398.06 356.839 1394.64 350.759C1400.72 315.419 1408.7 280.079 1409.08 278.179C1409.08 277.799 1409.08 277.799 1409.08 277.799C1414.02 247.779 1376.78 240.559 1366.14 239.039C1364.62 238.659 1363.48 239.799 1363.1 241.319C1358.92 259.939 1335.74 373.939 1354.36 429.039C1354.36 429.039 1366.14 467.419 1401.48 458.679C1424.66 452.599 1434.16 389.139 1434.16 389.139C1447.08 460.579 1490.02 459.819 1490.02 459.819C1566.78 460.959 1540.18 282.359 1540.18 282.359ZM1379.44 274.379C1375.26 292.999 1371.46 293.759 1359.3 343.539C1359.3 343.539 1361.58 305.539 1369.56 270.579C1371.46 262.219 1373.74 256.899 1377.92 256.139C1377.92 256.139 1383.62 254.619 1379.44 274.379ZM1391.6 424.479C1385.14 420.679 1388.18 390.659 1393.12 359.119C1395.78 361.399 1398.44 362.919 1401.48 364.439C1406.04 366.339 1410.98 367.859 1415.92 368.999C1407.18 401.299 1398.06 429.039 1391.6 424.479ZM1483.94 430.179C1483.94 430.179 1483.94 430.179 1483.56 430.179C1469.12 424.099 1466.08 399.019 1467.22 371.659C1472.92 371.279 1479 370.139 1484.7 368.619C1491.92 367.099 1501.42 362.919 1501.42 362.919C1501.04 438.159 1485.46 430.939 1483.94 430.179Z" fill="white"/>
<path d="M491.731 70.7178C491.731 70.7178 527.269 123.485 521.106 152.316C520.501 160.14 518.512 167.665 515.3 174.281C512.088 180.897 507.743 186.418 502.618 190.395C497.065 193.73 492.713 199.802 490.488 207.319C488.263 214.837 488.341 223.207 490.704 230.65C493.044 238.464 497.41 244.919 503.019 248.857C508.628 252.795 515.114 253.958 521.312 252.137C527.682 246.107 532.871 238.146 536.445 228.919C540.018 219.693 541.873 209.468 541.854 199.099C541.854 199.099 545.552 108.797 491.731 70.7178Z" fill="white"/>
</svg>
